<svg viewBox="0 0 512 512" version="1.1" xmlns="http://www.w3.org/2000/svg" xmlns:xlink="http://www.w3.org/1999/xlink">
    <style type="text/css">
        .blade{fill:#0377BD;}
        .frame{fill:#FFC107;}
    </style>
    <g>
        <g
            transform="matrix(0.65625056,0,0,0.65625056,174.99827,0.99983594)"
        >
            <path
                class="blade"
                d="m 489.656,138.962 c -29.791,-29.783 -78.087,-29.79 -107.878,0 -14.732,14.74 -22.162,34 -22.316,53.303 -0.03,3.264 -0.023,5.081 -1.196,8.02 -1.182,2.939 -4.838,6.078 -7.902,8.264 -20.855,14.814 -39.804,22.524 -56.361,25.942 -1.61,26.667 10.007,42.47 10.582,43.23 l 2.297,2.88 c 16.283,-7.207 39.095,-16.01 58.701,-25.308 5.767,-2.74 12.185,-4.992 16.372,-4.261 4.195,0.731 10.9,5.383 17.103,8.788 28.963,15.878 66.057,11.558 90.597,-12.982 29.791,-29.79 29.791,-78.078 0.001,-107.876 z m -24.784,83.093 c -16.099,16.114 -42.211,16.114 -58.31,0 -16.106,-16.099 -16.106,-42.211 0,-58.31 16.099,-16.099 42.211,-16.099 58.31,0.007 16.099,16.092 16.099,42.204 0,58.303 z"
            ></path>
            <path
                class="blade"
                d="m 303.455,161.64 c 2.171,-3.064 5.318,-6.713 8.256,-7.902 2.939,-1.181 4.756,-1.174 8.02,-1.204 19.311,-0.147 38.564,-7.584 53.304,-22.316 29.79,-29.791 29.79,-78.08 0,-107.87 -29.791,-29.797 -78.087,-29.797 -107.87,0 -24.54,24.54 -28.866,61.634 -12.982,90.597 3.404,6.196 8.056,12.901 8.788,17.095 0.731,4.195 -1.529,10.605 -4.261,16.373 -13.411,28.284 -25.802,63.25 -33.822,75.642 0,0 -179.303,208.458 -201.169,236.159 -21.866,27.7 -26.238,40.816 -17.495,49.559 8.744,8.751 21.874,4.379 49.567,-17.487 27.692,-21.866 236.15,-201.176 236.15,-201.176 0,0 -40.823,-51.015 13.514,-127.47 z M 289.941,47.132 c 16.099,-16.106 42.211,-16.106 58.311,0 16.099,16.099 16.099,42.204 0,58.302 -16.1,16.114 -42.212,16.114 -58.311,0.008 -16.099,-16.106 -16.099,-42.211 0,-58.31 z m -42.27,237.606 c -5.642,5.642 -14.777,5.642 -20.411,0 -5.636,-5.642 -5.636,-14.77 0,-20.412 5.634,-5.627 14.769,-5.627 20.411,0 5.634,5.642 5.627,14.77 0,20.412 z"
            ></path>
        </g>
        <path
            class="frame"
            d="M 416.6745 441.92255 C 416.67562 443.26804 416.55383 444.58708 416.47333 445.91473 C 416.4198 446.80341 416.42767 447.70696 416.33856 448.58661 C 414.82109 463.56655 408.16843 477.14637 398.2663 487.35028 C 398.01389 487.61104 397.7905 487.90062 397.53388 488.15692 C 397.53354 488.15726 397.53226 488.15658 397.53192 488.15692 C 397.24382 488.4454 396.9194 488.69799 396.62567 488.98114 C 389.42894 495.92708 380.58072 501.28934 370.72528 504.35614 C 366.62671 505.63153 362.36148 506.51744 357.97723 506.96356 C 355.78304 507.18709 353.55928 507.29955 351.31317 507.29755 L 65.375672 507.29755 L 65.360047 507.29755 C 63.119286 507.299 60.902268 507.18618 58.713563 506.96356 C 56.519101 506.74079 54.35461 506.40773 52.225281 505.97138 C 39.448325 503.35306 27.958699 496.99523 19.14325 488.15692 C 19.14291 488.15658 19.141636 488.15726 19.141297 488.15692 C 18.746565 487.76276 18.39907 487.32136 18.014344 486.91669 C 8.3527398 476.76456 1.8393404 463.37015 0.33660938 448.60223 C 0.33647777 448.60094 0.33674091 448.59962 0.33660938 448.59833 C 0.20281615 447.28532 0.18942336 445.94271 0.1354375 444.61005 C 0.099441347 443.71728 -7.9883817e-05 442.83873 0.000671875 441.93817 C 0.00067528927 441.93292 0.00066719742 441.9278 0.000671875 441.92255 L 0.000671875 155.98505 C -0.001328123 153.74092 0.11346897 151.51915 0.33660938 149.32684 C 0.33673986 149.32556 0.33647882 149.32422 0.33660938 149.32294 C 1.8992484 133.96628 8.8329322 120.04754 19.141297 109.7663 C 19.141636 109.76596 19.142911 109.76664 19.14325 109.7663 C 29.427827 99.441047 43.351317 92.515855 58.713563 90.959656 C 60.907306 90.736422 63.129674 90.623797 65.375672 90.625672 L 260.23505 90.625672 L 301.28192 90.625672 C 301.28192 90.625672 304.78167 93.297052 300.25067 98.110047 C 291.10968 107.82904 278.11017 125.14094 272.43817 139.65692 L 65.375672 139.65692 C 60.766676 139.67292 56.845169 141.43817 53.813172 144.43817 C 50.813175 147.46917 49.046922 151.39105 49.031922 155.98505 L 49.031922 441.93817 C 49.047908 446.52817 50.810119 450.46193 53.805359 453.49286 C 56.836292 456.4881 60.770046 458.25031 65.360047 458.2663 L 351.31317 458.2663 C 355.90717 458.2513 359.82905 456.48504 362.86005 453.48505 C 365.86004 450.45305 367.6253 446.53154 367.6413 441.92255 L 367.6413 234.86005 C 382.15728 229.18805 399.46918 216.18854 409.18817 207.04755 C 414.00117 202.51655 416.6745 206.0163 416.6745 206.0163 L 416.6745 441.92255 z "
        ></path>
    </g>
</svg>
